<svg xmlns="http://www.w3.org/2000/svg" xmlns:xlink="http://www.w3.org/1999/xlink" viewBox="0 0 247.17 158.89"><defs><style>.cls-1{filter:url(#AI_Erode_3);}.cls-2{fill:url(#linear-gradient);}.cls-3{fill:none;stroke:#000;stroke-miterlimit:10;stroke-width:0.96px;}</style><filter id="AI_Erode_3" name="AI_Erode_3"><feMorphology radius="3" in="SourceGraphic"/></filter><linearGradient id="linear-gradient" x1="25.2" y1="95.34" x2="270.87" y2="95.34" gradientUnits="userSpaceOnUse"><stop offset="0"/><stop offset="0.83"/></linearGradient></defs><g id="Layer_2" data-name="Layer 2"><g id="Layer_1-2" data-name="Layer 1"><g class="cls-1"><path class="cls-2" d="M270.87,21.05l-43.28-1.17L187.81,77.2,146.86,16.37H25.2V174.3H162.07L187.81,131l30.42,43.28h52.64q-29.25-35.67-58.49-71.36ZM130,142.72H68.48V121.66h66.69V79.54H67.31V53.81h56.22q16.93,24.56,33.86,49.13Z" transform="translate(-24.72 -15.89)"/><path class="cls-3" d="M270.87,21.05l-43.28-1.17L187.81,77.2,146.86,16.37H25.2V174.3H162.07L187.81,131l30.42,43.28h52.64q-29.25-35.67-58.49-71.36ZM130,142.72H68.48V121.66h66.69V79.54H67.31V53.81h56.22q16.93,24.56,33.86,49.13Z" transform="translate(-24.72 -15.89)"/></g></g></g></svg>